<?xml version="1.0" encoding="UTF-8" standalone="no"?>
<svg
   xmlns:dc="http://purl.org/dc/elements/1.1/"
   xmlns:cc="http://creativecommons.org/ns#"
   xmlns:rdf="http://www.w3.org/1999/02/22-rdf-syntax-ns#"
   xmlns:svg="http://www.w3.org/2000/svg"
   xmlns="http://www.w3.org/2000/svg"
   xmlns:sodipodi="http://sodipodi.sourceforge.net/DTD/sodipodi-0.dtd"
   xmlns:inkscape="http://www.inkscape.org/namespaces/inkscape"
   inkscape:export-ydpi="96"
   inkscape:export-xdpi="96"
   inkscape:export-filename="C:\Users\pabr6\eclipse-workspace\evalWriter\icons\content.png"
   sodipodi:docname="content.svg"
   inkscape:version="1.0 (4035a4fb49, 2020-05-01)"
   id="svg8"
   version="1.1"
   viewBox="0 0 12.7 12.7"
   height="48"
   width="48">
  <defs
     id="defs2">
    <pattern
       id="EMFhbasepattern"
       patternUnits="userSpaceOnUse"
       width="6"
       height="6"
       x="0"
       y="0" />
  </defs>
  <sodipodi:namedview
     inkscape:window-maximized="1"
     inkscape:window-y="-8"
     inkscape:window-x="-8"
     inkscape:window-height="1017"
     inkscape:window-width="1920"
     units="px"
     inkscape:guide-bbox="true"
     showguides="true"
     showgrid="false"
     inkscape:document-rotation="0"
     inkscape:current-layer="layer1"
     inkscape:document-units="mm"
     inkscape:cy="32.109373"
     inkscape:cx="33.145159"
     inkscape:zoom="7.8277187"
     inkscape:pageshadow="2"
     inkscape:pageopacity="0.0"
     borderopacity="1.0"
     bordercolor="#666666"
     pagecolor="#ffffff"
     id="base">
    <sodipodi:guide
       id="guide25"
       orientation="0,-1"
       position="94.049365,180.07197" />
  </sodipodi:namedview>
  <metadata
     id="metadata5">
    <rdf:RDF>
      <cc:Work
         rdf:about="">
        <dc:format>image/svg+xml</dc:format>
        <dc:type
           rdf:resource="http://purl.org/dc/dcmitype/StillImage" />
        <dc:title></dc:title>
      </cc:Work>
    </rdf:RDF>
  </metadata>
  <g
     id="layer1"
     inkscape:groupmode="layer"
     inkscape:label="Calque 1">
    <g
       transform="matrix(0.21824964,0,0,0.21824964,-16.345846,-22.242367)"
       id="g860">
      <path
         style="fill:#000000;stroke:#000000;stroke-width:0.264583px;stroke-linecap:butt;stroke-linejoin:miter;stroke-opacity:1"
         d="m 97.851363,116.92803 -3.801996,10e-6 v -4.53571 c 0.494218,-1.79587 1.61843,-2.96175 3.535191,-3.33508 h 12.940122 c 2.20572,0.36366 3.16807,1.59769 3.60189,3.20168 l 0.0667,4.6691 h -3.8687 l -0.1334,-4.06879 -12.273115,0.0667 z"
         id="path23"
         sodipodi:nodetypes="ccccccccccc" />
      <path
         style="fill:#000000;stroke:#000000;stroke-width:0.264583px;stroke-linecap:butt;stroke-linejoin:miter;stroke-opacity:1"
         d="m 113.05935,139.40651 -18.076157,0.0667 c -0.107002,-3.96037 -4.676931,-3.45223 -4.735819,0 h -5.336136 c -2.073628,-0.66813 -3.921197,-1.86372 -4.935923,-5.00262 l 0.0667,-12.94013 c 0.09381,-1.13446 0.644213,-2.01639 2.334559,-2.26786 l 43.422796,0.0667 c 1.16129,0.1553 2.05918,0.78472 2.33456,2.53467 l -0.0667,12.27311 c -0.50217,2.62974 -2.1669,4.48443 -5.33613,5.33613 l -4.80252,-0.0667 c -0.21814,-3.3527 -4.46548,-3.99027 -4.86923,0 z"
         id="path27"
         sodipodi:nodetypes="ccccccccccccc" />
      <path
         style="fill:#000000;stroke:#000000;stroke-width:0.264583px;stroke-linecap:butt;stroke-linejoin:miter;stroke-opacity:1"
         d="m 105.65546,149.41176 h -3.00158 l -0.0667,-7.53729 h -7.470584 c 0.04745,4.01984 -4.450498,4.15109 -5.069329,0.0667 l -5.336133,0.0667 c -1.534139,-0.0739 -2.668067,-0.64792 -4.802521,-2.73477 l 0.0667,11.07248 c 0.394165,1.50176 1.298886,1.98241 2.40126,2.06775 h 43.356097 c 1.28395,-0.19184 2.18264,-0.83314 2.40126,-2.26786 l -0.0667,-10.60557 c -1.16354,1.1197 -2.66819,2.02331 -5.00262,2.40127 l -5.00262,0.0667 c -0.20539,3.44544 -4.40319,4.34395 -5.00264,0 l -7.47058,0.0667 z"
         id="path29"
         sodipodi:nodetypes="ccccccccccccccccc" />
      <path
         sodipodi:type="star"
         style="fill:#cccccc;fill-rule:evenodd;stroke:none;stroke-width:2;stroke-linecap:round;stroke-linejoin:round"
         id="path31"
         sodipodi:sides="5"
         sodipodi:cx="103.76789"
         sodipodi:cy="126.80351"
         sodipodi:r1="5.0314469"
         sodipodi:r2="2.0176103"
         sodipodi:arg1="0.89812577"
         sodipodi:arg2="1.5264443"
         inkscape:flatsided="false"
         inkscape:rounded="0"
         inkscape:randomized="0"
         d="m 106.90287,130.73891 -3.04552,-1.91977 -2.86348,2.18202 0.88469,-3.48971 -2.96009,-2.04905 3.59229,-0.23698 1.03405,-3.44841 1.33547,3.34325 3.59916,-0.0822 -2.76693,2.30322 z"
         inkscape:transform-center-x="0.017314302"
         inkscape:transform-center-y="-0.67956459"
         transform="matrix(1.4931859,0.05754154,-0.05511856,1.4316963,-43.169968,-58.878014)" />
    </g>
  </g>
</svg>
