<?xml version="1.0" encoding="UTF-8" standalone="no"?>
<svg
   xmlns:dc="http://purl.org/dc/elements/1.1/"
   xmlns:cc="http://creativecommons.org/ns#"
   xmlns:rdf="http://www.w3.org/1999/02/22-rdf-syntax-ns#"
   xmlns:svg="http://www.w3.org/2000/svg"
   xmlns="http://www.w3.org/2000/svg"
   xmlns:sodipodi="http://sodipodi.sourceforge.net/DTD/sodipodi-0.dtd"
   xmlns:inkscape="http://www.inkscape.org/namespaces/inkscape"
   width="48"
   height="48"
   viewBox="0 0 12.7 12.7"
   version="1.1"
   id="svg8"
   inkscape:version="1.0 (4035a4fb49, 2020-05-01)"
   sodipodi:docname="feedback.svg"
   inkscape:export-filename="C:\Users\pabr6\eclipse-workspace\evalWriter\icons\feedback.png"
   inkscape:export-xdpi="96"
   inkscape:export-ydpi="96">
  <defs
     id="defs2">
    <pattern
       y="0"
       x="0"
       height="6"
       width="6"
       patternUnits="userSpaceOnUse"
       id="EMFhbasepattern" />
  </defs>
  <sodipodi:namedview
     id="base"
     pagecolor="#ffffff"
     bordercolor="#666666"
     borderopacity="1.0"
     inkscape:pageopacity="0.0"
     inkscape:pageshadow="2"
     inkscape:zoom="7.5400948"
     inkscape:cx="19.718926"
     inkscape:cy="17.818307"
     inkscape:document-units="mm"
     inkscape:current-layer="layer1"
     inkscape:document-rotation="0"
     showgrid="false"
     inkscape:snap-global="false"
     fit-margin-top="0"
     fit-margin-left="0"
     fit-margin-right="0"
     fit-margin-bottom="0"
     units="px"
     inkscape:window-width="1920"
     inkscape:window-height="1017"
     inkscape:window-x="-8"
     inkscape:window-y="-8"
     inkscape:window-maximized="1" />
  <metadata
     id="metadata5">
    <rdf:RDF>
      <cc:Work
         rdf:about="">
        <dc:format>image/svg+xml</dc:format>
        <dc:type
           rdf:resource="http://purl.org/dc/dcmitype/StillImage" />
        <dc:title></dc:title>
      </cc:Work>
    </rdf:RDF>
  </metadata>
  <g
     inkscape:label="Calque 1"
     inkscape:groupmode="layer"
     id="layer1"
     transform="translate(-62.773233,-87.475558)">
    <g
       id="g883"
       transform="matrix(0.16442311,0,0,0.16442311,53.504569,74.385325)">
      <g
         transform="translate(-3.5201055,3.6458235)"
         id="g873">
        <path
           id="rect852"
           style="fill:#ffffff;fill-rule:evenodd;stroke:#000000;stroke-width:3.77953;stroke-linecap:round;stroke-linejoin:round;stroke-miterlimit:4;stroke-dasharray:none;stroke-opacity:1"
           d="m 257.4668,318.72656 c -2.78101,0 -5.01953,2.23852 -5.01953,5.01953 v 76.50196 c 0,2.78101 2.23852,5.01953 5.01953,5.01953 h 109.44726 l 24.42188,27.43945 0.69726,-27.43945 h 20.45703 c 2.78102,0 5.01954,-2.23852 5.01954,-5.01953 v -76.50196 c 0,-2.78101 -2.23852,-5.01953 -5.01954,-5.01953 z"
           transform="scale(0.26458333)" />
        <path
           sodipodi:type="star"
           style="fill:#000000;fill-rule:evenodd;stroke:#000000;stroke-width:1;stroke-linecap:round;stroke-linejoin:round;stroke-miterlimit:4;stroke-dasharray:none;stroke-opacity:1"
           id="path23"
           sodipodi:sides="5"
           sodipodi:cx="75.241814"
           sodipodi:cy="95.750076"
           sodipodi:r1="6.0542235"
           sodipodi:r2="3.0271118"
           sodipodi:arg1="0.91622556"
           sodipodi:arg2="1.5445441"
           inkscape:flatsided="false"
           inkscape:rounded="0"
           inkscape:randomized="0"
           d="m 78.927739,100.55295 -3.606466,-1.776805 -3.508249,1.963625 0.575382,-3.979017 -2.951626,-2.729749 3.962071,-0.682364 1.684044,-3.650701 1.873313,3.557291 3.992422,0.473492 -2.8043,2.880891 z"
           inkscape:transform-center-x="0.049110126"
           inkscape:transform-center-y="-0.53122384" />
        <path
           inkscape:transform-center-y="-0.53122384"
           inkscape:transform-center-x="0.049110126"
           d="m 92.271069,100.3584 -3.606466,-1.776805 -3.508248,1.963625 0.575381,-3.979016 -2.951625,-2.72975 3.962071,-0.682363 1.684043,-3.650702 1.873314,3.557292 3.992421,0.473492 -2.804299,2.88089 z"
           inkscape:randomized="0"
           inkscape:rounded="0"
           inkscape:flatsided="false"
           sodipodi:arg2="1.5445441"
           sodipodi:arg1="0.91622556"
           sodipodi:r2="3.0271118"
           sodipodi:r1="6.0542235"
           sodipodi:cy="95.555527"
           sodipodi:cx="88.585144"
           sodipodi:sides="5"
           id="path25"
           style="fill:#000000;fill-rule:evenodd;stroke:#000000;stroke-width:1;stroke-linecap:round;stroke-linejoin:round;stroke-miterlimit:4;stroke-dasharray:none;stroke-opacity:1"
           sodipodi:type="star" />
        <path
           sodipodi:type="star"
           style="fill:none;fill-rule:evenodd;stroke:#000000;stroke-width:1;stroke-linecap:round;stroke-linejoin:round;stroke-miterlimit:4;stroke-dasharray:none;stroke-opacity:1"
           id="path27"
           sodipodi:sides="5"
           sodipodi:cx="102.35942"
           sodipodi:cy="95.468712"
           sodipodi:r1="6.0542235"
           sodipodi:r2="3.0271118"
           sodipodi:arg1="0.91622556"
           sodipodi:arg2="1.5445441"
           inkscape:flatsided="false"
           inkscape:rounded="0"
           inkscape:randomized="0"
           d="m 106.04535,100.27158 -3.60647,-1.776799 -3.508248,1.963619 0.575381,-3.979011 -2.951626,-2.72975 3.962073,-0.682363 1.68404,-3.650702 1.87332,3.557292 3.99242,0.473492 -2.8043,2.88089 z"
           inkscape:transform-center-x="0.049110126"
           inkscape:transform-center-y="-0.53122384" />
      </g>
      <g
         style="stroke-width:1;stroke-miterlimit:4;stroke-dasharray:none"
         transform="translate(-5.7830304,-1.2571805)"
         id="g867">
        <path
           style="fill:#ffffff;stroke:#000000;stroke-width:1;stroke-linecap:butt;stroke-linejoin:miter;stroke-miterlimit:4;stroke-dasharray:none;stroke-opacity:1"
           d="m 98.766744,130.15106 c 0,0 0.327483,-2.88752 3.001446,-2.90217 1.27961,-0.0119 7.65141,-4.86002 10.10884,-11.85395 2.45744,-6.99393 6.63086,-4.79416 7.30121,-2.13652 0.67035,2.65764 -0.90141,7.56943 -1.67542,11.05778 l 11.50456,0.11169 c 5.16405,-0.1182 3.93304,6.29649 -0.1117,6.81338 3.6651,2.19244 2.12485,5.42471 -0.78186,5.69643 2.37601,1.42602 0.89301,5.6866 -1.67542,5.69643 2.52021,2.00519 1.50733,5.26044 -2.01051,5.36134 l -22.89741,0.22339 c -1.918509,-0.31149 -2.533497,-1.63682 -2.792368,-3.23914 z"
           id="path858"
           sodipodi:nodetypes="cczzccccccccc" />
        <path
           style="fill:#ffffff;stroke:#000000;stroke-width:1;stroke-linecap:butt;stroke-linejoin:miter;stroke-miterlimit:4;stroke-dasharray:none;stroke-opacity:1"
           d="m 97.896741,127.21752 h -5.854044 v 20.97699 h 5.64497 c 0,0 -0.479981,-0.8237 -0.627218,-1.81196 -0.147237,-0.98826 -0.146937,-16.19979 0.06969,-17.28337 0.216627,-1.08358 0.766602,-1.88166 0.766602,-1.88166 z"
           id="path863"
           sodipodi:nodetypes="cccczzc" />
      </g>
    </g>
  </g>
</svg>
