<?xml version="1.0" encoding="UTF-8" standalone="no"?>
<svg
   inkscape:export-ydpi="96"
   inkscape:export-xdpi="96"
   inkscape:export-filename="C:\Users\pabr6\git\analyseWriter\MEPTL\icons\fichierAnalyseInfo.png"
   sodipodi:docname="fichier_analyseXML info.svg"
   inkscape:version="1.1.2 (b8e25be833, 2022-02-05)"
   id="svg8"
   version="1.1"
   viewBox="0 0 12.7 12.7"
   height="48"
   width="48"
   xmlns:inkscape="http://www.inkscape.org/namespaces/inkscape"
   xmlns:sodipodi="http://sodipodi.sourceforge.net/DTD/sodipodi-0.dtd"
   xmlns:xlink="http://www.w3.org/1999/xlink"
   xmlns="http://www.w3.org/2000/svg"
   xmlns:svg="http://www.w3.org/2000/svg"
   xmlns:rdf="http://www.w3.org/1999/02/22-rdf-syntax-ns#"
   xmlns:cc="http://creativecommons.org/ns#"
   xmlns:dc="http://purl.org/dc/elements/1.1/">
  <defs
     id="defs2">
    <linearGradient
       id="k"
       gradientTransform="matrix(7.99974,0,0,7.9977797,-863.30581,-7811.3988)"
       gradientUnits="userSpaceOnUse"
       x1="122.75008"
       x2="111.74973"
       xlink:href="#b"
       y1="991.62115"
       y2="977.11713" />
    <linearGradient
       id="b">
      <stop
         offset="0"
         stop-color="#0369a3"
         id="stop7" />
      <stop
         offset="1"
         stop-color="#1c99e0"
         id="stop9" />
    </linearGradient>
    <linearGradient
       id="j"
       gradientUnits="userSpaceOnUse"
       x1="108.00134"
       x2="20.001341"
       y1="122"
       y2="6"
       gradientTransform="translate(10.661607,-2.6314354)">
      <stop
         offset="0"
         stop-color="#e6e6e6"
         id="stop35" />
      <stop
         offset="1"
         stop-color="#fff"
         id="stop37" />
    </linearGradient>
    <linearGradient
       id="i"
       gradientUnits="userSpaceOnUse"
       x1="108.00134"
       x2="20.001341"
       xlink:href="#b"
       y1="130"
       y2="14"
       gradientTransform="translate(12)" />
    <linearGradient
       id="h"
       gradientTransform="matrix(4.4999,0,0,3.66665,-930.97741,2199.6564)"
       gradientUnits="userSpaceOnUse"
       x2="0"
       y1="-581.63782"
       y2="-578.63782">
      <stop
         offset="0"
         stop-color="#63bbee"
         id="stop29" />
      <stop
         offset="1"
         stop-color="#aadcf7"
         id="stop31" />
    </linearGradient>
    <linearGradient
       id="g"
       gradientTransform="matrix(-4.19983,0,0,3.9111,1552.9405,-4523.1636)"
       gradientUnits="userSpaceOnUse"
       x2="0"
       xlink:href="#a"
       y1="1173"
       y2="1178" />
    <linearGradient
       id="a">
      <stop
         offset="0"
         stop-color="#666"
         id="stop2" />
      <stop
         offset="1"
         stop-color="#333"
         id="stop4" />
    </linearGradient>
    <linearGradient
       id="f"
       gradientTransform="matrix(4.19983,0,0,3.9111,-1380.9394,-4521.9436)"
       gradientUnits="userSpaceOnUse"
       x2="0"
       xlink:href="#a"
       y1="1173"
       y2="1178" />
    <linearGradient
       id="e"
       gradientTransform="matrix(1.19997,0,0,1.22222,-269.19161,858.5534)"
       gradientUnits="userSpaceOnUse"
       x2="0"
       y1="-629.66907"
       y2="-635.54944">
      <stop
         offset="0"
         stop-color="#18a303"
         id="stop22" />
      <stop
         offset="1"
         stop-color="#106802"
         id="stop24" />
    </linearGradient>
    <linearGradient
       id="d"
       gradientTransform="matrix(4.19983,0,0,3.9111,-1380.9394,-4517.0536)"
       gradientUnits="userSpaceOnUse"
       x2="0"
       y1="1173"
       y2="1178">
      <stop
         offset="0"
         stop-color="#0369a3"
         id="stop17" />
      <stop
         offset="1"
         stop-color="#023f62"
         id="stop19" />
    </linearGradient>
    <linearGradient
       id="c"
       gradientTransform="matrix(0,0.791084,-1.28,0,1511.6005,-282.0136)"
       gradientUnits="userSpaceOnUse"
       x1="445.69522"
       x2="441.38797"
       y1="1103.5776"
       y2="1099.8198">
      <stop
         offset="0"
         stop-color="#e9b913"
         id="stop12" />
      <stop
         offset="1"
         stop-color="#ff0"
         id="stop14" />
    </linearGradient>
  </defs>
  <sodipodi:namedview
     inkscape:window-maximized="1"
     inkscape:window-y="-8"
     inkscape:window-x="-8"
     inkscape:window-height="1009"
     inkscape:window-width="1920"
     inkscape:guide-bbox="true"
     showguides="true"
     units="px"
     showgrid="false"
     inkscape:document-rotation="0"
     inkscape:current-layer="layer1"
     inkscape:document-units="mm"
     inkscape:cy="19.744638"
     inkscape:cx="12.018475"
     inkscape:zoom="4.6594929"
     inkscape:pageshadow="2"
     inkscape:pageopacity="0.0"
     borderopacity="1.0"
     bordercolor="#666666"
     pagecolor="#ffffff"
     id="base"
     inkscape:pagecheckerboard="0"
     fit-margin-top="0"
     fit-margin-left="0"
     fit-margin-right="0"
     fit-margin-bottom="0"
     inkscape:snap-bbox="true"
     inkscape:bbox-paths="true"
     inkscape:bbox-nodes="true"
     inkscape:snap-midpoints="true"
     inkscape:object-paths="true"
     inkscape:snap-global="false">
    <sodipodi:guide
       id="guide14"
       orientation="1,0"
       position="-2.471617e-08,4.4381936" />
    <sodipodi:guide
       position="6.6200247,5.8336321"
       orientation="0.70860014,0.70561026"
       id="guide2079" />
    <sodipodi:guide
       position="6.6200247,5.8336321"
       orientation="-0.71816555,0.69587229"
       id="guide5772" />
  </sodipodi:namedview>
  <metadata
     id="metadata5">
    <rdf:RDF>
      <cc:Work
         rdf:about="">
        <dc:format>image/svg+xml</dc:format>
        <dc:type
           rdf:resource="http://purl.org/dc/dcmitype/StillImage" />
      </cc:Work>
    </rdf:RDF>
  </metadata>
  <g
     id="layer1"
     inkscape:groupmode="layer"
     inkscape:label="Calque 1"
     transform="translate(-0.92013353,-0.34176359)">
    <g
       id="g923"
       transform="matrix(0.08485361,0,0,0.08631596,0.7234583,1.2433321)">
      <path
         d="m 34.652398,1.9735766 c -0.25037,0 -0.50072,0.011156 -0.75,0.035156 -3.66708,0.6998 -4.56576,2.2662469 -4.5,5.9980468 V 123.97553 c 4e-4,4.1875 1.81149,5.99765 6,5.99805 h 91.998062 c 4.1885,-4e-4 5.99764,-1.81055 5.99804,-5.99805 V 52.157171 c 0.048,-2.1119 -0.78004,-4.230247 -2.25,-5.748047 L 88.988348,4.2587328 c -1.51819,-1.4691999 -3.63759,-2.2988999 -5.75,-2.25 h -47.83595 c -0.24919,-0.024 -0.49962,-0.035156 -0.75,-0.035156 z m 70.009782,0.013672 c -0.20997,0 -0.41948,0.016828 -0.62695,0.048828 -2.66247,0.8528 -3.55843,4.904547 -1.50586,6.810547 l 24.0957,24.2207034 c 2.22593,2.1217 6.6581,0.306209 6.77538,-2.775391 V 6.0712326 c -2.4e-4,-2.1136998 -1.91298,-4.034856 -4.01561,-4.035156 h -24.09376 c -0.20758,-0.032 -0.41894,-0.048828 -0.6289,-0.048828 z"
         fill="url(#k)"
         id="path41"
         style="fill:url(#k)" />
      <path
         d="M 35.400458,7.9735766 V 123.97358 H 127.40048 V 51.973577 L 83.400478,7.9735766 Z"
         fill="url(#j)"
         id="path43"
         style="fill:url(#j)" />
      <text
         xml:space="preserve"
         style="font-size:35.6383px;line-height:1.25;font-family:'C.A. Gatintas';-inkscape-font-specification:'C.A. Gatintas';text-align:center;text-anchor:middle;stroke-width:3.09159"
         x="77.788284"
         y="121.28213"
         id="text2174"
         transform="scale(1.0649026,0.93905301)"><tspan
           sodipodi:role="line"
           id="tspan2172"
           style="font-style:normal;font-variant:normal;font-weight:900;font-stretch:normal;font-family:arial;-inkscape-font-specification:'arial Heavy';stroke-width:3.09159"
           x="77.788284"
           y="121.28213">XML</tspan></text>
    </g>
    <g
       id="g6608"
       transform="matrix(1.1011477,0,0,1.0960197,-0.92133887,-2.779724)"
       style="stroke-width:1.26529">
      <path
         id="path4945"
         style="fill:#000000;stroke:none;stroke-width:0.334773px;stroke-linecap:butt;stroke-linejoin:miter;stroke-opacity:1"
         d="M 6.9115255,4.1117374 A 2.5406649,2.4821629 0 0 0 4.3705953,6.5942731 2.5406649,2.4821629 0 0 0 6.9115255,9.0762921 2.5406649,2.4821629 0 0 0 8.4871398,8.5409244 L 9.0535135,9.109882 9.4219665,8.6845849 8.8902159,8.1507674 A 2.5406649,2.4821629 0 0 0 9.4519387,6.5942731 2.5406649,2.4821629 0 0 0 6.9115255,4.1117374 Z m 0,0.5539713 A 1.9739749,1.9285217 0 0 1 8.8850483,6.5942731 1.9739749,1.9285217 0 0 1 6.9115255,8.5223207 1.9739749,1.9285217 0 0 1 4.9374857,6.5942731 1.9739749,1.9285217 0 0 1 6.9115255,4.6657087 Z" />
      <path
         style="fill:#ff0000;stroke:none;stroke-width:0.334773px;stroke-linecap:butt;stroke-linejoin:miter;stroke-opacity:1"
         d="m 9.7071636,8.4854359 2.9328084,2.9440821 c 0.0419,0.512292 -0.280235,0.819082 -0.875635,0.903687 L 8.8320954,9.3885382 C 9.117696,9.015001 9.3363405,8.7445068 9.7071636,8.4854359 Z"
         id="path5444"
         sodipodi:nodetypes="ccccc" />
    </g>
    <path
       style="fill:#ffffff;stroke:#000000;stroke-width:0.0793751;stroke-linecap:butt;stroke-linejoin:miter;stroke-miterlimit:4;stroke-dasharray:none;stroke-opacity:1"
       d="m -10.634184,4.3401818 c 1.7894605,-1.278918 3.7435614,-1.943103 4.2366367,1.290227 l -1.6059687,0.524244 3.8637927,3.473627 1.7263753,-5.288098 -1.4795468,0.702997 c -2.8175687,-6.05499 -6.3751172,-2.720249 -6.7412892,-0.702997 z"
       id="path4019"
       sodipodi:nodetypes="ccccccc" />
  </g>
</svg>
