<?xml version="1.0" encoding="UTF-8" standalone="no"?>
<svg
   inkscape:export-ydpi="96"
   inkscape:export-xdpi="96"
   inkscape:export-filename="C:\Users\pabr6\git\analyseWriter\MEPTL\icons\fichierCSVInfoXML.png"
   sodipodi:docname="fichier_csv_student_xml.svg"
   inkscape:version="1.1.2 (b8e25be833, 2022-02-05)"
   id="svg8"
   version="1.1"
   viewBox="0 0 12.7 12.7"
   height="48"
   width="48"
   xmlns:inkscape="http://www.inkscape.org/namespaces/inkscape"
   xmlns:sodipodi="http://sodipodi.sourceforge.net/DTD/sodipodi-0.dtd"
   xmlns:xlink="http://www.w3.org/1999/xlink"
   xmlns="http://www.w3.org/2000/svg"
   xmlns:svg="http://www.w3.org/2000/svg"
   xmlns:rdf="http://www.w3.org/1999/02/22-rdf-syntax-ns#"
   xmlns:cc="http://creativecommons.org/ns#"
   xmlns:dc="http://purl.org/dc/elements/1.1/">
  <defs
     id="defs2">
    <linearGradient
       id="k"
       gradientTransform="matrix(7.9997399,0,0,7.9977797,-859.65069,-7810.3942)"
       gradientUnits="userSpaceOnUse"
       x1="122.75008"
       x2="111.74973"
       xlink:href="#b"
       y1="991.62115"
       y2="977.11713" />
    <linearGradient
       id="b">
      <stop
         offset="0"
         stop-color="#0369a3"
         id="stop7" />
      <stop
         offset="1"
         stop-color="#1c99e0"
         id="stop9" />
    </linearGradient>
    <linearGradient
       id="j"
       gradientUnits="userSpaceOnUse"
       x1="108.00134"
       x2="20.001341"
       y1="122"
       y2="6"
       gradientTransform="translate(12)">
      <stop
         offset="0"
         stop-color="#e6e6e6"
         id="stop35" />
      <stop
         offset="1"
         stop-color="#fff"
         id="stop37" />
    </linearGradient>
    <linearGradient
       id="i"
       gradientUnits="userSpaceOnUse"
       x1="108.00134"
       x2="20.001341"
       xlink:href="#b"
       y1="130"
       y2="14"
       gradientTransform="translate(12)" />
    <linearGradient
       id="h"
       gradientTransform="matrix(4.4999,0,0,3.66665,-930.97741,2199.6564)"
       gradientUnits="userSpaceOnUse"
       x2="0"
       y1="-581.63782"
       y2="-578.63782">
      <stop
         offset="0"
         stop-color="#63bbee"
         id="stop29" />
      <stop
         offset="1"
         stop-color="#aadcf7"
         id="stop31" />
    </linearGradient>
    <linearGradient
       id="g"
       gradientTransform="matrix(-4.19983,0,0,3.9111,1552.9405,-4523.1636)"
       gradientUnits="userSpaceOnUse"
       x2="0"
       xlink:href="#a"
       y1="1173"
       y2="1178" />
    <linearGradient
       id="a">
      <stop
         offset="0"
         stop-color="#666"
         id="stop2" />
      <stop
         offset="1"
         stop-color="#333"
         id="stop4" />
    </linearGradient>
    <linearGradient
       id="f"
       gradientTransform="matrix(4.19983,0,0,3.9111,-1380.9394,-4521.9436)"
       gradientUnits="userSpaceOnUse"
       x2="0"
       xlink:href="#a"
       y1="1173"
       y2="1178" />
    <linearGradient
       id="e"
       gradientTransform="matrix(1.19997,0,0,1.22222,-269.19161,858.5534)"
       gradientUnits="userSpaceOnUse"
       x2="0"
       y1="-629.66907"
       y2="-635.54944">
      <stop
         offset="0"
         stop-color="#18a303"
         id="stop22" />
      <stop
         offset="1"
         stop-color="#106802"
         id="stop24" />
    </linearGradient>
    <linearGradient
       id="d"
       gradientTransform="matrix(4.19983,0,0,3.9111,-1380.9394,-4517.0536)"
       gradientUnits="userSpaceOnUse"
       x2="0"
       y1="1173"
       y2="1178">
      <stop
         offset="0"
         stop-color="#0369a3"
         id="stop17" />
      <stop
         offset="1"
         stop-color="#023f62"
         id="stop19" />
    </linearGradient>
    <linearGradient
       id="c"
       gradientTransform="matrix(0,0.791084,-1.28,0,1511.6005,-282.0136)"
       gradientUnits="userSpaceOnUse"
       x1="445.69522"
       x2="441.38797"
       y1="1103.5776"
       y2="1099.8198">
      <stop
         offset="0"
         stop-color="#e9b913"
         id="stop12" />
      <stop
         offset="1"
         stop-color="#ff0"
         id="stop14" />
    </linearGradient>
    <linearGradient
       inkscape:collect="always"
       xlink:href="#b"
       id="linearGradient4157"
       gradientUnits="userSpaceOnUse"
       gradientTransform="matrix(7.9997394,0,0,7.997779,-859.65065,-7810.3935)"
       x1="122.75008"
       y1="991.62115"
       x2="111.74973"
       y2="977.11713" />
  </defs>
  <sodipodi:namedview
     inkscape:window-maximized="1"
     inkscape:window-y="-8"
     inkscape:window-x="-8"
     inkscape:window-height="1009"
     inkscape:window-width="1920"
     inkscape:guide-bbox="true"
     showguides="true"
     units="px"
     showgrid="false"
     inkscape:document-rotation="0"
     inkscape:current-layer="g4208"
     inkscape:document-units="mm"
     inkscape:cy="14.965968"
     inkscape:cx="37.149567"
     inkscape:zoom="9.421375"
     inkscape:pageshadow="2"
     inkscape:pageopacity="0.0"
     borderopacity="1.0"
     bordercolor="#666666"
     pagecolor="#ffffff"
     id="base"
     inkscape:pagecheckerboard="0"
     fit-margin-top="0"
     fit-margin-left="0"
     fit-margin-right="0"
     fit-margin-bottom="0"
     inkscape:snap-bbox="true"
     inkscape:bbox-paths="true"
     inkscape:bbox-nodes="true"
     inkscape:snap-midpoints="true"
     inkscape:object-paths="true"
     inkscape:snap-global="false">
    <sodipodi:guide
       id="guide14"
       orientation="1,0"
       position="-2.471617e-08,4.4381936" />
    <sodipodi:guide
       position="6.6200247,5.8336321"
       orientation="-0.71816555,0.69587229"
       id="guide5772" />
  </sodipodi:namedview>
  <metadata
     id="metadata5">
    <rdf:RDF>
      <cc:Work
         rdf:about="">
        <dc:format>image/svg+xml</dc:format>
        <dc:type
           rdf:resource="http://purl.org/dc/dcmitype/StillImage" />
      </cc:Work>
    </rdf:RDF>
  </metadata>
  <g
     id="layer1"
     inkscape:groupmode="layer"
     inkscape:label="Calque 1"
     transform="translate(-0.92013353,-0.34176359)">
    <g
       id="g923"
       transform="matrix(0.08485361,0,0,0.08631596,0.60989086,1.0161972)">
      <g
         id="g4208"
         transform="translate(-2.3167326,1.6267735)">
        <path
           style="fill:url(#k);stroke-width:1"
           d="m 30.858625,-5.2831881 c -0.273281,0 -0.546539,0.012177 -0.81863,0.038373 -4.00264,0.7638359 -4.983554,2.4736221 -4.911777,6.5469042 V 127.88268 c 4.37e-4,4.57068 1.977252,6.54647 6.549036,6.5469 H 132.09369 c 4.57177,-4.3e-4 6.54646,-1.97622 6.54689,-6.5469 V 49.492506 c 0.0524,-2.305152 -0.85142,-4.61734 -2.45589,-6.274028 L 90.16664,-2.7889264 c -1.657113,-1.6036405 -3.970451,-2.509263 -6.276159,-2.4558885 H 31.677254 c -0.271992,-0.026196 -0.545338,-0.038373 -0.818629,-0.038373 z"
           id="path41" />
        <path
           d="M 31.675137,1.2658478 V 127.88055 H 132.09371 V 49.292112 L 84.067446,1.2658478 Z"
           fill="url(#j)"
           id="path43"
           style="fill:#000080;stroke-width:1" />
        <path
           style="fill:#ffffff;stroke-width:0.3;stroke-linecap:round;stroke-linejoin:round;paint-order:fill markers stroke;stop-color:#000000"
           d="M 8.2421875,3.4921875 V 23.351562 H 40.447266 v -2.095703 c -0.09248,0.01116 -0.184138,0.02148 -0.277344,0.02148 -0.122106,0 -0.246464,-0.01036 -0.367188,-0.0293 H 25.791016 C 24.568178,21.247861 23.455218,20.111781 23.455078,18.86132 V 4.53125 c 0.01446,-0.3863734 0.147779,-0.7350196 0.351563,-1.0390625 z"
           transform="matrix(3.1181152,0,0,3.0652887,5.9729432,-9.4403182)"
           id="rect970" />
        <path
           style="fill:url(#linearGradient4157);stroke-width:1"
           d="m 131.023,55.778799 c 0.39381,0 0.78673,-0.03172 1.17584,-0.09203 4.9934,-1.607182 6.67375,-9.243081 2.82421,-12.835116 L 89.832099,-2.7945364 C 85.657415,-6.7930797 77.344978,-3.3716161 77.125023,2.4359483 V 48.082148 c 4.5e-4,3.983465 3.587752,7.604065 7.531187,7.604632 h 45.1873 c 0.38931,0.06032 0.78572,0.09202 1.17949,0.09202 z"
           id="path4056" />
        <text
           xml:space="preserve"
           style="font-size:53.1628px;line-height:1.25;font-family:'C.A. Gatintas';-inkscape-font-specification:'C.A. Gatintas';text-align:center;text-anchor:middle;fill:#ffffff;stroke-width:3.0916"
           x="88.898773"
           y="96.537178"
           id="text3199"
           transform="scale(0.90538451,1.1045031)"><tspan
             sodipodi:role="line"
             id="tspan3197"
             style="font-style:normal;font-variant:normal;font-weight:normal;font-stretch:normal;font-family:arial;-inkscape-font-specification:arial;fill:#ffffff;stroke-width:3.0916"
             x="88.898773"
             y="96.537178">CSV</tspan></text>
        <g
           id="g6608"
           transform="matrix(13.490989,0,0,13.200666,179.93357,-56.557486)"
           style="stroke-width:1.21708">
          <path
             id="path4945"
             style="fill:#000000;stroke:none;stroke-width:0.322019px;stroke-linecap:butt;stroke-linejoin:miter;stroke-opacity:1"
             d="M 6.9115255,4.1117374 A 2.5406649,2.4821629 0 0 0 4.3705953,6.5942731 2.5406649,2.4821629 0 0 0 6.9115255,9.0762921 2.5406649,2.4821629 0 0 0 8.4871398,8.5409244 L 9.0535135,9.109882 9.4219665,8.6845849 8.8902159,8.1507674 A 2.5406649,2.4821629 0 0 0 9.4519387,6.5942731 2.5406649,2.4821629 0 0 0 6.9115255,4.1117374 Z m 0,0.5539713 A 1.9739749,1.9285217 0 0 1 8.8850483,6.5942731 1.9739749,1.9285217 0 0 1 6.9115255,8.5223207 1.9739749,1.9285217 0 0 1 4.9374857,6.5942731 1.9739749,1.9285217 0 0 1 6.9115255,4.6657087 Z" />
          <path
             style="fill:#ff0000;stroke:none;stroke-width:0.322019px;stroke-linecap:butt;stroke-linejoin:miter;stroke-opacity:1"
             d="m 9.7071636,8.4854359 2.9328084,2.9440821 c 0.0419,0.512292 -0.280235,0.819082 -0.875635,0.903687 L 8.8320954,9.3885382 C 9.117696,9.015001 9.3363405,8.7445068 9.7071636,8.4854359 Z"
             id="path5444"
             sodipodi:nodetypes="ccccc" />
        </g>
        <path
           style="fill:#ffd42a;stroke:none;stroke-width:3.09159px;stroke-linecap:butt;stroke-linejoin:miter;stroke-opacity:1"
           d="M 108.97189,-2.3796952 88.34193,65.405769 126.16351,37.675352 90.634137,134.21828 150.2318,14.053143 106.67968,40.756507 127.30964,-3.4067497 Z"
           id="path3536" />
        <text
           xml:space="preserve"
           style="font-size:53.1628px;line-height:1.25;font-family:'C.A. Gatintas';-inkscape-font-specification:'C.A. Gatintas';text-align:center;text-anchor:middle;fill:#ff0000;stroke-width:3.0916"
           x="89.404747"
           y="56.259651"
           id="text1376"
           transform="scale(0.90538451,1.1045031)"><tspan
             sodipodi:role="line"
             id="tspan1374"
             style="font-style:normal;font-variant:normal;font-weight:normal;font-stretch:normal;font-family:arial;-inkscape-font-specification:arial;fill:#ff0000;stroke-width:3.0916"
             x="89.404747"
             y="56.259651">XML</tspan></text>
      </g>
    </g>
  </g>
</svg>
