<?xml version="1.0" encoding="UTF-8" standalone="no"?>
<svg
   xmlns:dc="http://purl.org/dc/elements/1.1/"
   xmlns:cc="http://creativecommons.org/ns#"
   xmlns:rdf="http://www.w3.org/1999/02/22-rdf-syntax-ns#"
   xmlns:svg="http://www.w3.org/2000/svg"
   xmlns="http://www.w3.org/2000/svg"
   xmlns:sodipodi="http://sodipodi.sourceforge.net/DTD/sodipodi-0.dtd"
   xmlns:inkscape="http://www.inkscape.org/namespaces/inkscape"
   sodipodi:docname="paragraphe_source.svg"
   inkscape:version="1.0 (4035a4fb49, 2020-05-01)"
   id="svg8"
   version="1.1"
   viewBox="0 0 6.3499999 6.3500002"
   height="24"
   width="24">
  <defs
     id="defs2" />
  <sodipodi:namedview
     inkscape:window-maximized="1"
     inkscape:window-y="-8"
     inkscape:window-x="-8"
     inkscape:window-height="1017"
     inkscape:window-width="1920"
     units="px"
     inkscape:guide-bbox="true"
     showguides="true"
     showgrid="false"
     inkscape:document-rotation="0"
     inkscape:current-layer="layer1"
     inkscape:document-units="mm"
     inkscape:cy="14.169058"
     inkscape:cx="14.923305"
     inkscape:zoom="22.246986"
     inkscape:pageshadow="2"
     inkscape:pageopacity="0.0"
     borderopacity="1.0"
     bordercolor="#666666"
     pagecolor="#ffffff"
     id="base">
    <sodipodi:guide
       id="guide850"
       orientation="0,-1"
       position="60.020994,258.39729" />
    <sodipodi:guide
       id="guide880"
       orientation="1,0"
       position="93.15419,258.3973" />
  </sodipodi:namedview>
  <metadata
     id="metadata5">
    <rdf:RDF>
      <cc:Work
         rdf:about="">
        <dc:format>image/svg+xml</dc:format>
        <dc:type
           rdf:resource="http://purl.org/dc/dcmitype/StillImage" />
        <dc:title></dc:title>
      </cc:Work>
    </rdf:RDF>
  </metadata>
  <g
     id="layer1"
     inkscape:groupmode="layer"
     inkscape:label="Calque 1">
    <path
       d="m 2.7156643,0.02407896 c -0.8181987,-4e-6 -1.4814805,0.6648481 -1.4814745,1.48498234 9.6e-6,0.820123 0.6632864,1.4849584 1.4814745,1.4849544 0.1223794,-4.6e-6 0.244287,-0.015208 0.3629356,-0.045265 V 6.034164 H 2.8077831 V 6.3740765 H 4.4446266 V 6.0341625 H 4.197111 V 1.5157981 c 5.1e-6,-0.00222 5.1e-6,-0.0045 0,-0.00674 V 0.42821386 h 0.00278 v -0.4041374 z m 0.7939097,0.4041374 h 0.2219595 0.034602 v 0.033742 l -1.127e-4,-1.132e-4 V 1.2691452 l 1.127e-4,5.01e-4 V 1.7484754 C 3.7245363,1.9309728 3.6361122,2.0994849 3.5095725,2.2374103 Z m -0.7956913,0.00228 H 3.0785999 V 2.523531 c -0.116467,0.04167 -0.2392392,0.06297 -0.3629356,0.062972 C 2.1206127,2.5865122 1.6382215,2.1041337 1.638216,1.509082 1.6382013,0.91570016 2.1179725,0.43399966 2.7113492,0.43163306 h 2.78e-5 c 8.595e-4,-1e-6 0.00167,-1e-6 0.00253,0 z M 3.7661369,2.5561303 V 6.0341828 H 3.509574 V 2.7627505 C 3.6024856,2.703642 3.6885374,2.6343411 3.7661369,2.5561303 Z"
       style="fill:#000000;fill-opacity:0.984076;fill-rule:evenodd;stroke-width:0.0049124;stroke-linecap:round;stroke-linejoin:round"
       id="path10" />
  </g>
</svg>
